{"title":"American Chopper - Senior VS Junior - Season 1 - DVD-R [RLG]","uid":13502323,"size":15373817988,"categoryP":"video","categoryS":"tv_shows","magnet":"?xt=urn:btih:bb6d3a9a2e6c6b3b2ad38e14a6b7c4b4d8893620&amp;dn=American+Chopper+-+Senior+VS+Junior+-+Season+1+-+DVD-R+%5BRLG%5D&amp;tr=udp%3A%2F%2Ftracker.leechers-paradise.org%3A6969&amp;tr=udp%3A%2F%2Fzer0day.ch%3A1337&amp;tr=udp%3A%2F%2Fopen.demonii.com%3A1337&amp;tr=udp%3A%2F%2Ftracker.coppersurfer.tk%3A6969&amp;tr=udp%3A%2F%2Fexodus.desync.com%3A6969","seeders":0,"leechers":3,"uploader":"RedLegsGreaves","files":59,"time":1455213395,"description":"[IMG]http://lookpic.com/O/i2/1774/t9McgEwA.png[/IMG]\r\n\r\n\r\n[b]INFO[/b]\r\n \nhttp://www.imdb.com/title/tt0364779/?ref_=ttrel_rel_tt\r\n\r\nVideo\r\nID                          : 224 (0xE0)\r\nFormat                      : MPEG Video\r\nFormat version              : Version 2\r\nFormat profile              :   \r\nFormat settings, BVOP       : Yes\r\nFormat settings, Matrix     : Custom\r\nFormat settings, GOP        : Variable\r\nFormat settings, picture st : Frame\r\nDuration                    : 23mn 43s\r\nBit rate mode               : Variable\r\nBit rate                    : 5 723 Kbps\r\nMaximum bit rate            : 9 800 Kbps\r\nWidth                       : 720 pixels\r\nHeight                      : 480 pixels\r\nDisplay aspect ratio        : 16:9\r\nFrame rate                  : 29.970 (30000/1001) fps\r\nStandard                    : NTSC\r\nColor space                 : YUV\r\nChroma subsampling          : 4:2:0\r\nBit depth                   : 8 bits\r\nScan type                   : Interlaced\r\nScan order                  : Top Field First\r\nCompression mode            : Lossy\r\nBits/(Pixel*Frame)          : 0.553\r\nTime code of first frame    : 00:59:59;00\r\nTime code source            : Group of pictures header\r\nStream size                 : 971 MiB (95%)\r\n\r\nAudio\r\nID                          : 189 (0xBD)-128 (0x80)\r\nFormat                      : AC-3\r\nFormat/Info                 : Audio Coding 3\r\nMode extension              : CM (complete main)\r\nFormat settings, Endianness : Big\r\nMuxing mode                 : DVD-Video\r\nDuration                    : 23mn 43s\r\nBit rate mode               : Constant\r\nBit rate                    : 192 Kbps\r\nChannel(s)                  : 2 channels\r\nChannel positions           : Front: L R\r\nSampling rate               : 48.0 KHz\r\nFrame rate                  : 31.250 fps (1536 spf)\r\nCompression mode            : Lossy\r\nStream size                 : 32.6 MiB (3%)\r\n[b]Cast[/b]\r\n\r\nPaul Teutul Jr. Himself (58 episodes, 2002-2010)\r\nPaul Teutul Sr. Himself (57 episodes, 2002-2010)\r\nMichael Teutul Himself (55 episodes, 2003-2012)\r\nMike Rowe Mike Rowe Announcer / ... (51 episodes, 2002-2010)\r\nJim Pratt Jim Pratt Announcer / ... (26 episodes, 2009-2010) \r\n\r\n[b]Plot[/b]\r\n\r\nAmerican Chopper profiles the lives of New York natives Paul Teutul Sr. and his son Paul Jr. of Orange County Choppers, creators of the world's most outrageous custom motorcycles. American Chopper captures the day-to -day drama of this volatile father-and-son team as they battle impossible deadlines and push the envelope of motorcycle design and fabrication. From heated arguments and humorous antics to creative setbacks and artistic triumphs. American Chopper celebrates one family's struggle to achieve the American Dream [icon=note6]\r\n\r\nFor Newer Users\r\nSimply Drag downloaded folder to your Media Player. This is a NTSC DVD\r\nThis is ripped so you would have best quality, menu, bonus/special feature, language options etc\r\nNote: DVDs may not have have all* featues \r\n\r\n[b]Screenshots[/b]\r\n[IMG]http://lookpic.com/O/i2/1353/9SF2JeAn.jpeg[/IMG]\r\n[IMG]http://lookpic.com/O/i2/1357/jH2zrWrD.jpeg[/IMG]\r\n[IMG]http://lookpic.com/O/i2/1852/GOYz7Xb.jpeg[/IMG]\r\n[IMG]http://lookpic.com/O/i2/465/3g3599M9.jpeg[/IMG]\r\n[IMG]http://lookpic.com/O/i2/360/SAGGScRd.jpeg[/IMG]\r\n\r\n[img]https://i.imgur.com/fLhfPWl.jpg[/img]","torrent":{"xt":"urn:btih:bb6d3a9a2e6c6b3b2ad38e14a6b7c4b4d8893620","amp;dn":"American+Chopper+-+Senior+VS+Junior+-+Season+1+-+DVD-R+%5BRLG%5D","amp;tr":["udp%3A%2F%2Ftracker.leechers-paradise.org%3A6969","udp%3A%2F%2Fzer0day.ch%3A1337","udp%3A%2F%2Fopen.demonii.com%3A1337","udp%3A%2F%2Ftracker.coppersurfer.tk%3A6969","udp%3A%2F%2Fexodus.desync.com%3A6969"],"infoHash":"bb6d3a9a2e6c6b3b2ad38e14a6b7c4b4d8893620","infoHashBuffer":{"type":"Buffer","data":[187,109,58,154,46,108,107,59,42,211,142,20,166,183,196,180,216,137,54,32]},"announce":[],"urlList":[]}}